unsigned char bone_supercut_mid[] = {
  0x4d, 0x54, 0x68, 0x64, 0x00, 0x00, 0x00, 0x06, 0x00, 0x01, 0x00, 0x0e,
  0x02, 0x58, 0x4d, 0x54, 0x72, 0x6b, 0x00, 0x00, 0x00, 0x2d, 0x00, 0xff,
  0x51, 0x03, 0x06, 0x1a, 0x80, 0x90, 0x32, 0xff, 0x58, 0x04, 0x04, 0x02,
  0x18, 0x08, 0x00, 0xff, 0x58, 0x04, 0x04, 0x02, 0x18, 0x08, 0xc4, 0x03,
  0xff, 0x51, 0x03, 0x06, 0x1a, 0x80, 0x88, 0x51, 0xff, 0x58, 0x04, 0x04,
  0x02, 0x18, 0x08, 0x00, 0xff, 0x2f, 0x00, 0x4d, 0x54, 0x72, 0x6b, 0x00,
  0x00, 0x00, 0x04, 0x00, 0xff, 0x2f, 0x00, 0x4d, 0x54, 0x72, 0x6b, 0x00,
  0x00, 0x00, 0x04, 0x00, 0xff, 0x2f, 0x00, 0x4d, 0x54, 0x72, 0x6b, 0x00,
  0x00, 0x00, 0x04, 0x00, 0xff, 0x2f, 0x00, 0x4d, 0x54, 0x72, 0x6b, 0x00,
  0x00, 0x00, 0x04, 0x00, 0xff, 0x2f, 0x00, 0x4d, 0x54, 0x72, 0x6b, 0x00,
  0x00, 0x00, 0x04, 0x00, 0xff, 0x2f, 0x00, 0x4d, 0x54, 0x72, 0x6b, 0x00,
  0x00, 0x00, 0xd3, 0x92, 0x5e, 0x9b, 0x3c, 0x6e, 0x6a, 0x9b, 0x3c, 0x00,
  0x81, 0x42, 0x9b, 0x43, 0x6e, 0x6a, 0x9b, 0x43, 0x00, 0x81, 0x42, 0x9b,
  0x48, 0x6e, 0x6a, 0x9b, 0x48, 0x00, 0x81, 0x42, 0x9b, 0x4b, 0x6e, 0x84,
  0x58, 0x9b, 0x4b, 0x00, 0x00, 0x9b, 0x48, 0x6e, 0x84, 0x58, 0x9b, 0x48,
  0x00, 0x00, 0x9b, 0x47, 0x6e, 0x82, 0x2c, 0x9b, 0x48, 0x6e, 0x1f, 0x9b,
  0x47, 0x00, 0x4b, 0x9b, 0x48, 0x00, 0x81, 0x42, 0x9b, 0x4a, 0x6e, 0x84,
  0x58, 0x9b, 0x4a, 0x00, 0x00, 0x9b, 0x48, 0x6e, 0x6a, 0x9b, 0x48, 0x00,
  0x81, 0x42, 0x9b, 0x43, 0x6e, 0x6a, 0x9b, 0x43, 0x00, 0x81, 0x42, 0x9b,
  0x3f, 0x6e, 0x6a, 0x9b, 0x3f, 0x00, 0x81, 0x42, 0x9b, 0x3c, 0x6e, 0x6a,
  0x9b, 0x3c, 0x00, 0x81, 0x42, 0x9b, 0x3e, 0x6e, 0x82, 0x2c, 0x9b, 0x3f,
  0x6e, 0x1f, 0x9b, 0x3e, 0x00, 0x4b, 0x9b, 0x3f, 0x00, 0x81, 0x42, 0x9b,
  0x42, 0x6e, 0x84, 0x58, 0x9b, 0x42, 0x00, 0x00, 0x9b, 0x43, 0x6e, 0x6a,
  0x9b, 0x43, 0x00, 0x81, 0x42, 0x9b, 0x3f, 0x6e, 0x6a, 0x9b, 0x3f, 0x00,
  0x81, 0x42, 0x9b, 0x3c, 0x6e, 0x6a, 0x9b, 0x3c, 0x00, 0x81, 0x42, 0x9b,
  0x39, 0x6e, 0x6a, 0x9b, 0x39, 0x00, 0x81, 0x42, 0x9b, 0x3b, 0x6e, 0x82,
  0x2c, 0x9b, 0x3c, 0x6e, 0x1f, 0x9b, 0x3b, 0x00, 0x4b, 0x9b, 0x3c, 0x00,
  0x81, 0x42, 0x9b, 0x3e, 0x6e, 0x84, 0x58, 0x9b, 0x3e, 0x00, 0x00, 0x9b,
  0x3c, 0x6e, 0x6a, 0x9b, 0x3c, 0x00, 0x00, 0xff, 0x2f, 0x00, 0x4d, 0x54,
  0x72, 0x6b, 0x00, 0x00, 0x00, 0x04, 0x00, 0xff, 0x2f, 0x00, 0x4d, 0x54,
  0x72, 0x6b, 0x00, 0x00, 0x01, 0x36, 0x84, 0x56, 0x9a, 0x39, 0x6c, 0x00,
  0x9a, 0x36, 0x6c, 0x6a, 0x9a, 0x39, 0x00, 0x00, 0x9a, 0x36, 0x00, 0x83,
  0x6e, 0x9a, 0x37, 0x6c, 0x00, 0x9a, 0x33, 0x6c, 0x6a, 0x9a, 0x37, 0x00,
  0x00, 0x9a, 0x33, 0x00, 0x83, 0x6e, 0x9a, 0x36, 0x6c, 0x00, 0x9a, 0x32,
  0x6c, 0x6a, 0x9a, 0x36, 0x00, 0x00, 0x9a, 0x32, 0x00, 0x83, 0x6e, 0x9a,
  0x37, 0x6c, 0x00, 0x9a, 0x33, 0x6c, 0x6a, 0x9a, 0x37, 0x00, 0x00, 0x9a,
  0x33, 0x00, 0x83, 0x6e, 0x9a, 0x39, 0x6c, 0x00, 0x9a, 0x36, 0x6c, 0x6a,
  0x9a, 0x39, 0x00, 0x00, 0x9a, 0x36, 0x00, 0x83, 0x6e, 0x9a, 0x37, 0x6c,
  0x00, 0x9a, 0x33, 0x6c, 0x6a, 0x9a, 0x37, 0x00, 0x00, 0x9a, 0x33, 0x00,
  0x83, 0x6e, 0x9a, 0x36, 0x6c, 0x00, 0x9a, 0x32, 0x6c, 0x6a, 0x9a, 0x36,
  0x00, 0x00, 0x9a, 0x32, 0x00, 0x83, 0x6e, 0x9a, 0x37, 0x6c, 0x00, 0x9a,
  0x33, 0x6c, 0x6a, 0x9a, 0x37, 0x00, 0x00, 0x9a, 0x33, 0x00, 0x83, 0x6e,
  0x9a, 0x39, 0x6c, 0x00, 0x9a, 0x36, 0x6c, 0x6a, 0x9a, 0x39, 0x00, 0x00,
  0x9a, 0x36, 0x00, 0x83, 0x6e, 0x9a, 0x37, 0x6c, 0x00, 0x9a, 0x33, 0x6c,
  0x6a, 0x9a, 0x37, 0x00, 0x00, 0x9a, 0x33, 0x00, 0x83, 0x6e, 0x9a, 0x36,
  0x6c, 0x00, 0x9a, 0x32, 0x6c, 0x6a, 0x9a, 0x36, 0x00, 0x00, 0x9a, 0x32,
  0x00, 0x83, 0x6e, 0x9a, 0x37, 0x6c, 0x00, 0x9a, 0x33, 0x6c, 0x6a, 0x9a,
  0x37, 0x00, 0x00, 0x9a, 0x33, 0x00, 0x83, 0x6e, 0x9a, 0x39, 0x6c, 0x00,
  0x9a, 0x36, 0x6c, 0x6a, 0x9a, 0x39, 0x00, 0x00, 0x9a, 0x36, 0x00, 0x83,
  0x6e, 0x9a, 0x37, 0x6c, 0x00, 0x9a, 0x33, 0x6c, 0x6a, 0x9a, 0x37, 0x00,
  0x00, 0x9a, 0x33, 0x00, 0x83, 0x6e, 0x9a, 0x36, 0x6c, 0x00, 0x9a, 0x32,
  0x6c, 0x6a, 0x9a, 0x36, 0x00, 0x00, 0x9a, 0x32, 0x00, 0x83, 0x6e, 0x9a,
  0x37, 0x6c, 0x00, 0x9a, 0x33, 0x6c, 0x6a, 0x9a, 0x37, 0x00, 0x00, 0x9a,
  0x33, 0x00, 0x83, 0x6e, 0x9a, 0x39, 0x6c, 0x00, 0x9a, 0x36, 0x6c, 0x6a,
  0x9a, 0x39, 0x00, 0x00, 0x9a, 0x36, 0x00, 0x83, 0x6e, 0x9a, 0x37, 0x6c,
  0x00, 0x9a, 0x33, 0x6c, 0x6a, 0x9a, 0x37, 0x00, 0x00, 0x9a, 0x33, 0x00,
  0x00, 0xff, 0x2f, 0x00, 0x4d, 0x54, 0x72, 0x6b, 0x00, 0x00, 0x00, 0xb8,
  0x82, 0x2a, 0x90, 0x24, 0x6c, 0x82, 0x2c, 0x90, 0x24, 0x00, 0x82, 0x2c,
  0x90, 0x24, 0x6c, 0x82, 0x2c, 0x90, 0x24, 0x00, 0x82, 0x2c, 0x90, 0x24,
  0x6c, 0x82, 0x2c, 0x90, 0x24, 0x00, 0x82, 0x2c, 0x90, 0x24, 0x6c, 0x82,
  0x2c, 0x90, 0x24, 0x00, 0x82, 0x2c, 0x90, 0x24, 0x6c, 0x82, 0x2c, 0x90,
  0x24, 0x00, 0x82, 0x2c, 0x90, 0x24, 0x6c, 0x82, 0x2c, 0x90, 0x24, 0x00,
  0x82, 0x2c, 0x90, 0x24, 0x6c, 0x82, 0x2c, 0x90, 0x24, 0x00, 0x82, 0x2c,
  0x90, 0x24, 0x6c, 0x82, 0x2c, 0x90, 0x24, 0x00, 0x82, 0x2c, 0x90, 0x24,
  0x6c, 0x82, 0x2c, 0x90, 0x24, 0x00, 0x82, 0x2c, 0x90, 0x24, 0x6c, 0x82,
  0x2c, 0x90, 0x24, 0x00, 0x82, 0x2c, 0x90, 0x24, 0x6c, 0x82, 0x2c, 0x90,
  0x24, 0x00, 0x82, 0x2c, 0x90, 0x24, 0x6c, 0x82, 0x2c, 0x90, 0x24, 0x00,
  0x82, 0x2c, 0x90, 0x24, 0x6c, 0x82, 0x2c, 0x90, 0x24, 0x00, 0x82, 0x2c,
  0x90, 0x24, 0x6c, 0x82, 0x2c, 0x90, 0x24, 0x00, 0x82, 0x2c, 0x90, 0x24,
  0x6c, 0x82, 0x2c, 0x90, 0x24, 0x00, 0x82, 0x2c, 0x90, 0x24, 0x6c, 0x82,
  0x2c, 0x90, 0x24, 0x00, 0x82, 0x2c, 0x90, 0x24, 0x6c, 0x82, 0x2c, 0x90,
  0x24, 0x00, 0x82, 0x2c, 0x90, 0x24, 0x6c, 0x82, 0x2c, 0x90, 0x24, 0x00,
  0x00, 0xff, 0x2f, 0x00, 0x4d, 0x54, 0x72, 0x6b, 0x00, 0x00, 0x00, 0x04,
  0x00, 0xff, 0x2f, 0x00, 0x4d, 0x54, 0x72, 0x6b, 0x00, 0x00, 0x00, 0x04,
  0x00, 0xff, 0x2f, 0x00, 0x4d, 0x54, 0x72, 0x6b, 0x00, 0x00, 0x01, 0x1b,
  0x84, 0x56, 0x99, 0x2e, 0x6e, 0x16, 0x99, 0x2e, 0x00, 0x82, 0x16, 0x99,
  0x2c, 0x6e, 0x16, 0x99, 0x2c, 0x00, 0x82, 0x16, 0x99, 0x2e, 0x6e, 0x16,
  0x99, 0x2e, 0x00, 0x82, 0x16, 0x99, 0x2c, 0x6e, 0x16, 0x99, 0x2c, 0x00,
  0x81, 0x00, 0x99, 0x2a, 0x6e, 0x16, 0x99, 0x2a, 0x00, 0x81, 0x00, 0x99,
  0x2a, 0x6e, 0x16, 0x99, 0x2a, 0x00, 0x84, 0x42, 0x99, 0x2a, 0x6e, 0x16,
  0x99, 0x2a, 0x00, 0x84, 0x42, 0x99, 0x2e, 0x6e, 0x16, 0x99, 0x2e, 0x00,
  0x82, 0x16, 0x99, 0x2c, 0x6e, 0x16, 0x99, 0x2c, 0x00, 0x82, 0x16, 0x99,
  0x2e, 0x6e, 0x16, 0x99, 0x2e, 0x00, 0x82, 0x16, 0x99, 0x2c, 0x6e, 0x16,
  0x99, 0x2c, 0x00, 0x81, 0x00, 0x99, 0x2a, 0x6e, 0x16, 0x99, 0x2a, 0x00,
  0x81, 0x00, 0x99, 0x2a, 0x6e, 0x16, 0x99, 0x2a, 0x00, 0x84, 0x42, 0x99,
  0x2a, 0x6e, 0x16, 0x99, 0x2a, 0x00, 0x84, 0x42, 0x99, 0x2e, 0x6e, 0x16,
  0x99, 0x2e, 0x00, 0x82, 0x16, 0x99, 0x2c, 0x6e, 0x16, 0x99, 0x2c, 0x00,
  0x82, 0x16, 0x99, 0x2e, 0x6e, 0x16, 0x99, 0x2e, 0x00, 0x82, 0x16, 0x99,
  0x2c, 0x6e, 0x16, 0x99, 0x2c, 0x00, 0x81, 0x00, 0x99, 0x2a, 0x6e, 0x16,
  0x99, 0x2a, 0x00, 0x81, 0x00, 0x99, 0x2a, 0x6e, 0x16, 0x99, 0x2a, 0x00,
  0x84, 0x42, 0x99, 0x2a, 0x6e, 0x16, 0x99, 0x2a, 0x00, 0x84, 0x42, 0x99,
  0x2e, 0x6e, 0x16, 0x99, 0x2e, 0x00, 0x82, 0x16, 0x99, 0x2c, 0x6e, 0x16,
  0x99, 0x2c, 0x00, 0x82, 0x16, 0x99, 0x2e, 0x6e, 0x16, 0x99, 0x2e, 0x00,
  0x82, 0x16, 0x99, 0x2c, 0x6e, 0x16, 0x99, 0x2c, 0x00, 0x81, 0x00, 0x99,
  0x2a, 0x6e, 0x16, 0x99, 0x2a, 0x00, 0x81, 0x00, 0x99, 0x2a, 0x6e, 0x16,
  0x99, 0x2a, 0x00, 0x84, 0x42, 0x99, 0x2a, 0x6e, 0x16, 0x99, 0x2a, 0x00,
  0x84, 0x42, 0x99, 0x2e, 0x6e, 0x16, 0x99, 0x2e, 0x00, 0x82, 0x16, 0x99,
  0x2c, 0x6e, 0x16, 0x99, 0x2c, 0x00, 0x82, 0x16, 0x99, 0x2e, 0x6e, 0x16,
  0x99, 0x2e, 0x00, 0x00, 0xff, 0x2f, 0x00, 0x4d, 0x54, 0x72, 0x6b, 0x00,
  0x00, 0x01, 0x7a, 0x82, 0x2a, 0x99, 0x28, 0x46, 0x00, 0x99, 0x26, 0x6c,
  0x16, 0x99, 0x28, 0x00, 0x00, 0x99, 0x26, 0x00, 0x84, 0x42, 0x99, 0x23,
  0x46, 0x00, 0x99, 0x24, 0x6c, 0x16, 0x99, 0x23, 0x00, 0x00, 0x99, 0x24,
  0x00, 0x84, 0x42, 0x99, 0x28, 0x46, 0x00, 0x99, 0x26, 0x6c, 0x16, 0x99,
  0x28, 0x00, 0x00, 0x99, 0x26, 0x00, 0x82, 0x16, 0x99, 0x23, 0x46, 0x00,
  0x99, 0x24, 0x6c, 0x16, 0x99, 0x23, 0x00, 0x00, 0x99, 0x24, 0x00, 0x82,
  0x16, 0x99, 0x23, 0x46, 0x00, 0x99, 0x24, 0x6c, 0x16, 0x99, 0x23, 0x00,
  0x00, 0x99, 0x24, 0x00, 0x84, 0x42, 0x99, 0x28, 0x46, 0x00, 0x99, 0x26,
  0x6c, 0x16, 0x99, 0x28, 0x00, 0x00, 0x99, 0x26, 0x00, 0x84, 0x42, 0x99,
  0x23, 0x46, 0x00, 0x99, 0x24, 0x6c, 0x16, 0x99, 0x23, 0x00, 0x00, 0x99,
  0x24, 0x00, 0x84, 0x42, 0x99, 0x28, 0x46, 0x00, 0x99, 0x26, 0x6c, 0x16,
  0x99, 0x28, 0x00, 0x00, 0x99, 0x26, 0x00, 0x82, 0x16, 0x99, 0x23, 0x46,
  0x00, 0x99, 0x24, 0x6c, 0x16, 0x99, 0x23, 0x00, 0x00, 0x99, 0x24, 0x00,
  0x82, 0x16, 0x99, 0x23, 0x46, 0x00, 0x99, 0x24, 0x6c, 0x16, 0x99, 0x23,
  0x00, 0x00, 0x99, 0x24, 0x00, 0x84, 0x42, 0x99, 0x28, 0x46, 0x00, 0x99,
  0x26, 0x6c, 0x16, 0x99, 0x28, 0x00, 0x00, 0x99, 0x26, 0x00, 0x84, 0x42,
  0x99, 0x23, 0x46, 0x00, 0x99, 0x24, 0x6c, 0x16, 0x99, 0x23, 0x00, 0x00,
  0x99, 0x24, 0x00, 0x84, 0x42, 0x99, 0x28, 0x46, 0x00, 0x99, 0x26, 0x6c,
  0x16, 0x99, 0x28, 0x00, 0x00, 0x99, 0x26, 0x00, 0x82, 0x16, 0x99, 0x23,
  0x46, 0x00, 0x99, 0x24, 0x6c, 0x16, 0x99, 0x23, 0x00, 0x00, 0x99, 0x24,
  0x00, 0x82, 0x16, 0x99, 0x23, 0x46, 0x00, 0x99, 0x24, 0x6c, 0x16, 0x99,
  0x23, 0x00, 0x00, 0x99, 0x24, 0x00, 0x84, 0x42, 0x99, 0x28, 0x46, 0x00,
  0x99, 0x26, 0x6c, 0x16, 0x99, 0x28, 0x00, 0x00, 0x99, 0x26, 0x00, 0x84,
  0x42, 0x99, 0x23, 0x46, 0x00, 0x99, 0x24, 0x6c, 0x16, 0x99, 0x23, 0x00,
  0x00, 0x99, 0x24, 0x00, 0x84, 0x42, 0x99, 0x28, 0x46, 0x00, 0x99, 0x26,
  0x6c, 0x16, 0x99, 0x28, 0x00, 0x00, 0x99, 0x26, 0x00, 0x82, 0x16, 0x99,
  0x23, 0x46, 0x00, 0x99, 0x24, 0x6c, 0x16, 0x99, 0x23, 0x00, 0x00, 0x99,
  0x24, 0x00, 0x82, 0x16, 0x99, 0x23, 0x46, 0x00, 0x99, 0x24, 0x6c, 0x16,
  0x99, 0x23, 0x00, 0x00, 0x99, 0x24, 0x00, 0x84, 0x42, 0x99, 0x28, 0x46,
  0x00, 0x99, 0x26, 0x6c, 0x16, 0x99, 0x28, 0x00, 0x00, 0x99, 0x26, 0x00,
  0x84, 0x42, 0x99, 0x23, 0x46, 0x00, 0x99, 0x24, 0x6c, 0x16, 0x99, 0x23,
  0x00, 0x00, 0x99, 0x24, 0x00, 0x00, 0xff, 0x2f, 0x00
};
unsigned int bone_supercut_mid_len = 1569;
