unsigned char Retry_Bone_mid[] = {
  0x4d, 0x54, 0x68, 0x64, 0x00, 0x00, 0x00, 0x06, 0x00, 0x01, 0x00, 0x0e,
  0x00, 0xc0, 0x4d, 0x54, 0x72, 0x6b, 0x00, 0x00, 0x00, 0x40, 0x00, 0xff,
  0x51, 0x03, 0x06, 0x1a, 0x80, 0x00, 0xff, 0x59, 0x02, 0x00, 0x00, 0x00,
  0xff, 0x02, 0x0e, 0x46, 0x72, 0x6f, 0x6d, 0x20, 0x55, 0x6e, 0x64, 0x65,
  0x72, 0x74, 0x61, 0x6c, 0x65, 0x00, 0xff, 0x03, 0x0b, 0x42, 0x6f, 0x6e,
  0x65, 0x74, 0x72, 0x6f, 0x75, 0x73, 0x6c, 0x65, 0x00, 0xff, 0x58, 0x04,
  0x04, 0x02, 0x18, 0x08, 0xa1, 0x60, 0xff, 0x2f, 0x00, 0x92, 0x60, 0xff,
  0x2f, 0x00, 0x4d, 0x54, 0x72, 0x6b, 0x00, 0x00, 0x00, 0x2c, 0x00, 0xbc,
  0x00, 0x00, 0x00, 0xbc, 0x20, 0x00, 0x00, 0xcc, 0x50, 0x00, 0xff, 0x03,
  0x07, 0x53, 0x74, 0x61, 0x66, 0x66, 0x2d, 0x35, 0x00, 0xbc, 0x07, 0x7f,
  0x00, 0xbc, 0x07, 0x7f, 0x00, 0xbc, 0x0a, 0x40, 0xa1, 0x60, 0xff, 0x2f,
  0x00, 0x92, 0x60, 0xff, 0x2f, 0x00, 0x4d, 0x54, 0x72, 0x6b, 0x00, 0x00,
  0x00, 0x2d, 0x00, 0xb4, 0x00, 0x00, 0x00, 0xb4, 0x20, 0x00, 0x00, 0xc4,
  0x29, 0x00, 0xff, 0x03, 0x08, 0x53, 0x74, 0x61, 0x66, 0x66, 0x2d, 0x31,
  0x32, 0x00, 0xb4, 0x07, 0x7f, 0x00, 0xb4, 0x07, 0x7f, 0x00, 0xb4, 0x0a,
  0x40, 0xa1, 0x60, 0xff, 0x2f, 0x00, 0x92, 0x60, 0xff, 0x2f, 0x00, 0x4d,
  0x54, 0x72, 0x6b, 0x00, 0x00, 0x00, 0x2d, 0x00, 0xb5, 0x00, 0x00, 0x00,
  0xb5, 0x20, 0x00, 0x00, 0xc5, 0x48, 0x00, 0xff, 0x03, 0x08, 0x53, 0x74,
  0x61, 0x66, 0x66, 0x2d, 0x31, 0x33, 0x00, 0xb5, 0x07, 0x7f, 0x00, 0xb5,
  0x07, 0x7f, 0x00, 0xb5, 0x0a, 0x40, 0xa1, 0x60, 0xff, 0x2f, 0x00, 0x92,
  0x60, 0xff, 0x2f, 0x00, 0x4d, 0x54, 0x72, 0x6b, 0x00, 0x00, 0x00, 0x2c,
  0x00, 0xbf, 0x00, 0x00, 0x00, 0xbf, 0x20, 0x00, 0x00, 0xcf, 0x6e, 0x00,
  0xff, 0x03, 0x07, 0x53, 0x74, 0x61, 0x66, 0x66, 0x2d, 0x38, 0x00, 0xbf,
  0x07, 0x7f, 0x00, 0xbf, 0x07, 0x7f, 0x00, 0xbf, 0x0a, 0x40, 0xa1, 0x60,
  0xff, 0x2f, 0x00, 0x92, 0x60, 0xff, 0x2f, 0x00, 0x4d, 0x54, 0x72, 0x6b,
  0x00, 0x00, 0x00, 0x2c, 0x00, 0xbd, 0x00, 0x00, 0x00, 0xbd, 0x20, 0x00,
  0x00, 0xcd, 0x51, 0x00, 0xff, 0x03, 0x07, 0x53, 0x74, 0x61, 0x66, 0x66,
  0x2d, 0x36, 0x00, 0xbd, 0x07, 0x7f, 0x00, 0xbd, 0x07, 0x7f, 0x00, 0xbd,
  0x0a, 0x40, 0xa1, 0x60, 0xff, 0x2f, 0x00, 0x92, 0x60, 0xff, 0x2f, 0x00,
  0x4d, 0x54, 0x72, 0x6b, 0x00, 0x00, 0x01, 0x5f, 0x00, 0xbb, 0x00, 0x00,
  0x00, 0xbb, 0x20, 0x00, 0x00, 0xcb, 0x51, 0x00, 0xff, 0x03, 0x07, 0x53,
  0x74, 0x61, 0x66, 0x66, 0x2d, 0x34, 0x00, 0xbb, 0x07, 0x7f, 0x00, 0xbb,
  0x07, 0x7f, 0x00, 0xbb, 0x0a, 0x40, 0x00, 0x9b, 0x42, 0x6e, 0x81, 0x40,
  0x8b, 0x42, 0x00, 0x00, 0x9b, 0x43, 0x6e, 0x22, 0x8b, 0x43, 0x00, 0x3e,
  0x9b, 0x3f, 0x6e, 0x22, 0x8b, 0x3f, 0x00, 0x3e, 0x9b, 0x3c, 0x6e, 0x22,
  0x8b, 0x3c, 0x00, 0x3e, 0x9b, 0x39, 0x6e, 0x22, 0x8b, 0x39, 0x00, 0x3e,
  0x9b, 0x3b, 0x6e, 0x60, 0x3c, 0x6e, 0x0a, 0x8b, 0x3b, 0x00, 0x18, 0x3c,
  0x00, 0x3e, 0x9b, 0x3e, 0x6e, 0x81, 0x40, 0x8b, 0x3e, 0x00, 0x00, 0x9b,
  0x3c, 0x6e, 0x22, 0x8b, 0x3c, 0x00, 0x83, 0x3e, 0x9b, 0x3c, 0x6e, 0x22,
  0x8b, 0x3c, 0x00, 0x3e, 0x9b, 0x43, 0x6e, 0x22, 0x8b, 0x43, 0x00, 0x3e,
  0x9b, 0x48, 0x6e, 0x22, 0x8b, 0x48, 0x00, 0x3e, 0x9b, 0x4b, 0x6e, 0x81,
  0x10, 0x8b, 0x4b, 0x00, 0x00, 0x9b, 0x50, 0x6e, 0x16, 0x8b, 0x50, 0x00,
  0x02, 0x9b, 0x51, 0x6e, 0x16, 0x8b, 0x51, 0x00, 0x02, 0x9b, 0x52, 0x6e,
  0x81, 0x40, 0x8b, 0x52, 0x00, 0x00, 0x9b, 0x51, 0x6e, 0x22, 0x8b, 0x51,
  0x00, 0x3e, 0x9b, 0x4f, 0x6e, 0x22, 0x8b, 0x4f, 0x00, 0x3e, 0x9b, 0x51,
  0x6e, 0x81, 0x40, 0x8b, 0x51, 0x00, 0x00, 0x9b, 0x52, 0x6e, 0x22, 0x8b,
  0x52, 0x00, 0x3e, 0x9b, 0x4f, 0x6e, 0x22, 0x8b, 0x4f, 0x00, 0x3e, 0x9b,
  0x4b, 0x6e, 0x22, 0x8b, 0x4b, 0x00, 0x3e, 0x9b, 0x48, 0x6e, 0x22, 0x8b,
  0x48, 0x00, 0x3e, 0x9b, 0x47, 0x6e, 0x22, 0x8b, 0x47, 0x00, 0x3e, 0x9b,
  0x48, 0x6e, 0x22, 0x8b, 0x48, 0x00, 0x3e, 0x9b, 0x4a, 0x6e, 0x81, 0x40,
  0x8b, 0x4a, 0x00, 0x00, 0x9b, 0x4b, 0x6e, 0x22, 0x8b, 0x4b, 0x00, 0x3e,
  0x9b, 0x48, 0x6e, 0x22, 0x8b, 0x48, 0x00, 0x3e, 0x9b, 0x43, 0x6e, 0x22,
  0x8b, 0x43, 0x00, 0x3e, 0x9b, 0x3f, 0x6e, 0x22, 0x8b, 0x3f, 0x00, 0x3e,
  0x9b, 0x47, 0x6e, 0x60, 0x45, 0x6e, 0x0a, 0x8b, 0x47, 0x00, 0x18, 0x45,
  0x00, 0x3e, 0x9b, 0x47, 0x6e, 0x16, 0x8b, 0x47, 0x00, 0x02, 0x9b, 0x48,
  0x6e, 0x16, 0x8b, 0x48, 0x00, 0x02, 0x9b, 0x47, 0x6e, 0x16, 0x8b, 0x47,
  0x00, 0x02, 0x9b, 0x48, 0x6e, 0x16, 0x8b, 0x48, 0x00, 0x02, 0x9b, 0x47,
  0x6e, 0x5e, 0x8b, 0x47, 0x00, 0x02, 0x9b, 0x48, 0x6e, 0x46, 0x8b, 0x48,
  0x00, 0x81, 0x5a, 0xff, 0x2f, 0x00, 0x92, 0x60, 0xff, 0x2f, 0x00, 0x4d,
  0x54, 0x72, 0x6b, 0x00, 0x00, 0x00, 0x2c, 0x00, 0xbe, 0x00, 0x00, 0x00,
  0xbe, 0x20, 0x00, 0x00, 0xce, 0x0c, 0x00, 0xff, 0x03, 0x07, 0x53, 0x74,
  0x61, 0x66, 0x66, 0x2d, 0x37, 0x00, 0xbe, 0x07, 0x7f, 0x00, 0xbe, 0x07,
  0x7f, 0x00, 0xbe, 0x0a, 0x40, 0xa1, 0x60, 0xff, 0x2f, 0x00, 0x92, 0x60,
  0xff, 0x2f, 0x00, 0x4d, 0x54, 0x72, 0x6b, 0x00, 0x00, 0x01, 0x82, 0x00,
  0xba, 0x00, 0x00, 0x00, 0xba, 0x20, 0x00, 0x00, 0xca, 0x51, 0x00, 0xff,
  0x03, 0x07, 0x53, 0x74, 0x61, 0x66, 0x66, 0x2d, 0x32, 0x00, 0xba, 0x07,
  0x7f, 0x00, 0xba, 0x07, 0x7f, 0x00, 0xba, 0x0a, 0x40, 0x00, 0x9a, 0x37,
  0x6c, 0x00, 0x33, 0x6c, 0x60, 0x39, 0x6c, 0x00, 0x36, 0x6c, 0x22, 0x8a,
  0x39, 0x00, 0x00, 0x36, 0x00, 0x81, 0x1e, 0x9a, 0x37, 0x6c, 0x00, 0x33,
  0x6c, 0x22, 0x8a, 0x37, 0x00, 0x00, 0x33, 0x00, 0x81, 0x1e, 0x9a, 0x36,
  0x6c, 0x00, 0x32, 0x6c, 0x22, 0x8a, 0x36, 0x00, 0x00, 0x32, 0x00, 0x81,
  0x1e, 0x9a, 0x37, 0x6c, 0x00, 0x33, 0x6c, 0x22, 0x8a, 0x37, 0x00, 0x00,
  0x33, 0x00, 0x81, 0x1e, 0x9a, 0x39, 0x6c, 0x00, 0x36, 0x6c, 0x22, 0x8a,
  0x39, 0x00, 0x00, 0x36, 0x00, 0x81, 0x1e, 0x9a, 0x37, 0x6c, 0x00, 0x33,
  0x6c, 0x22, 0x8a, 0x37, 0x00, 0x00, 0x33, 0x00, 0x81, 0x1e, 0x9a, 0x36,
  0x6c, 0x00, 0x32, 0x6c, 0x22, 0x8a, 0x36, 0x00, 0x00, 0x32, 0x00, 0x81,
  0x1e, 0x9a, 0x37, 0x6c, 0x00, 0x33, 0x6c, 0x22, 0x8a, 0x37, 0x00, 0x00,
  0x33, 0x00, 0x81, 0x1e, 0x9a, 0x39, 0x6c, 0x00, 0x36, 0x6c, 0x22, 0x8a,
  0x39, 0x00, 0x00, 0x36, 0x00, 0x81, 0x1e, 0x9a, 0x37, 0x6c, 0x00, 0x33,
  0x6c, 0x22, 0x8a, 0x37, 0x00, 0x00, 0x33, 0x00, 0x81, 0x1e, 0x9a, 0x36,
  0x6c, 0x00, 0x32, 0x6c, 0x22, 0x8a, 0x36, 0x00, 0x00, 0x32, 0x00, 0x81,
  0x1e, 0x9a, 0x37, 0x6c, 0x00, 0x33, 0x6c, 0x22, 0x8a, 0x37, 0x00, 0x00,
  0x33, 0x00, 0x81, 0x1e, 0x9a, 0x39, 0x6c, 0x00, 0x36, 0x6c, 0x22, 0x8a,
  0x39, 0x00, 0x00, 0x36, 0x00, 0x81, 0x1e, 0x9a, 0x37, 0x6c, 0x00, 0x33,
  0x6c, 0x22, 0x8a, 0x37, 0x00, 0x00, 0x33, 0x00, 0x81, 0x1e, 0x9a, 0x36,
  0x6c, 0x00, 0x32, 0x6c, 0x22, 0x8a, 0x36, 0x00, 0x00, 0x32, 0x00, 0x81,
  0x1e, 0x9a, 0x37, 0x6c, 0x00, 0x33, 0x6c, 0x22, 0x8a, 0x37, 0x00, 0x00,
  0x33, 0x00, 0x81, 0x1e, 0x9a, 0x39, 0x6c, 0x00, 0x36, 0x6c, 0x22, 0x8a,
  0x39, 0x00, 0x00, 0x36, 0x00, 0x81, 0x1e, 0x9a, 0x37, 0x6c, 0x00, 0x33,
  0x6c, 0x22, 0x8a, 0x37, 0x00, 0x00, 0x33, 0x00, 0x81, 0x1e, 0x9a, 0x36,
  0x6c, 0x00, 0x32, 0x6c, 0x22, 0x8a, 0x36, 0x00, 0x00, 0x32, 0x00, 0x81,
  0x1e, 0x9a, 0x37, 0x6c, 0x00, 0x33, 0x6c, 0x22, 0x8a, 0x37, 0x00, 0x00,
  0x33, 0x00, 0x81, 0x1e, 0x9a, 0x39, 0x6c, 0x00, 0x36, 0x6c, 0x22, 0x8a,
  0x39, 0x00, 0x00, 0x36, 0x00, 0x81, 0x1e, 0x9a, 0x37, 0x6c, 0x00, 0x33,
  0x6c, 0x22, 0x8a, 0x37, 0x00, 0x00, 0x33, 0x00, 0x81, 0x1e, 0x9a, 0x36,
  0x6c, 0x00, 0x32, 0x6c, 0x00, 0xff, 0x2f, 0x00, 0x92, 0x60, 0xff, 0x2f,
  0x00, 0x4d, 0x54, 0x72, 0x6b, 0x00, 0x00, 0x00, 0xe9, 0x00, 0xb0, 0x00,
  0x00, 0x00, 0xb0, 0x20, 0x00, 0x00, 0xc0, 0x51, 0x00, 0xff, 0x03, 0x05,
  0x53, 0x74, 0x61, 0x66, 0x66, 0x00, 0xb0, 0x07, 0x7f, 0x00, 0xb0, 0x07,
  0x7f, 0x00, 0xb0, 0x0a, 0x40, 0x00, 0x90, 0x24, 0x6c, 0x00, 0x80, 0x24,
  0x00, 0x00, 0x90, 0x24, 0x6c, 0x60, 0x80, 0x24, 0x00, 0x60, 0x90, 0x24,
  0x6c, 0x60, 0x80, 0x24, 0x00, 0x60, 0x90, 0x24, 0x6c, 0x60, 0x80, 0x24,
  0x00, 0x60, 0x90, 0x24, 0x6c, 0x60, 0x80, 0x24, 0x00, 0x60, 0x90, 0x24,
  0x6c, 0x60, 0x80, 0x24, 0x00, 0x60, 0x90, 0x24, 0x6c, 0x60, 0x80, 0x24,
  0x00, 0x60, 0x90, 0x24, 0x6c, 0x60, 0x80, 0x24, 0x00, 0x60, 0x90, 0x24,
  0x6c, 0x60, 0x80, 0x24, 0x00, 0x60, 0x90, 0x24, 0x6c, 0x60, 0x80, 0x24,
  0x00, 0x60, 0x90, 0x24, 0x6c, 0x60, 0x80, 0x24, 0x00, 0x60, 0x90, 0x24,
  0x6c, 0x60, 0x80, 0x24, 0x00, 0x60, 0x90, 0x24, 0x6c, 0x60, 0x80, 0x24,
  0x00, 0x60, 0x90, 0x24, 0x6c, 0x60, 0x80, 0x24, 0x00, 0x60, 0x90, 0x24,
  0x6c, 0x60, 0x80, 0x24, 0x00, 0x60, 0x90, 0x24, 0x6c, 0x60, 0x80, 0x24,
  0x00, 0x60, 0x90, 0x24, 0x6c, 0x60, 0x80, 0x24, 0x00, 0x60, 0x90, 0x24,
  0x6c, 0x60, 0x80, 0x24, 0x00, 0x60, 0x90, 0x24, 0x6c, 0x60, 0x80, 0x24,
  0x00, 0x60, 0x90, 0x24, 0x6c, 0x60, 0x80, 0x24, 0x00, 0x60, 0x90, 0x24,
  0x6c, 0x60, 0x80, 0x24, 0x00, 0x60, 0x90, 0x24, 0x6c, 0x60, 0x80, 0x24,
  0x00, 0x60, 0x90, 0x24, 0x6c, 0x60, 0x80, 0x24, 0x00, 0x60, 0x90, 0x24,
  0x6c, 0x60, 0x80, 0x24, 0x00, 0x00, 0xff, 0x2f, 0x00, 0x92, 0x60, 0xff,
  0x2f, 0x00, 0x4d, 0x54, 0x72, 0x6b, 0x00, 0x00, 0x00, 0x2d, 0x00, 0xb2,
  0x00, 0x00, 0x00, 0xb2, 0x20, 0x00, 0x00, 0xc2, 0x3a, 0x00, 0xff, 0x03,
  0x08, 0x53, 0x74, 0x61, 0x66, 0x66, 0x2d, 0x31, 0x30, 0x00, 0xb2, 0x07,
  0x7f, 0x00, 0xb2, 0x07, 0x7f, 0x00, 0xb2, 0x0a, 0x40, 0xa1, 0x60, 0xff,
  0x2f, 0x00, 0x92, 0x60, 0xff, 0x2f, 0x00, 0x4d, 0x54, 0x72, 0x6b, 0x00,
  0x00, 0x00, 0x2d, 0x00, 0xb3, 0x00, 0x00, 0x00, 0xb3, 0x20, 0x00, 0x00,
  0xc3, 0x3a, 0x00, 0xff, 0x03, 0x08, 0x53, 0x74, 0x61, 0x66, 0x66, 0x2d,
  0x31, 0x31, 0x00, 0xb3, 0x07, 0x7f, 0x00, 0xb3, 0x07, 0x7f, 0x00, 0xb3,
  0x0a, 0x40, 0xa1, 0x60, 0xff, 0x2f, 0x00, 0x92, 0x60, 0xff, 0x2f, 0x00,
  0x4d, 0x54, 0x72, 0x6b, 0x00, 0x00, 0x01, 0x7c, 0x00, 0xb9, 0x00, 0x00,
  0x00, 0xb9, 0x20, 0x00, 0x00, 0xc9, 0x10, 0x00, 0xff, 0x03, 0x07, 0x53,
  0x74, 0x61, 0x66, 0x66, 0x2d, 0x33, 0x00, 0xb9, 0x07, 0x7f, 0x00, 0xb9,
  0x07, 0x7f, 0x00, 0xb9, 0x0a, 0x40, 0x00, 0x99, 0x2a, 0x6e, 0x60, 0x2e,
  0x6e, 0x07, 0x89, 0x2e, 0x00, 0x59, 0x99, 0x2c, 0x6e, 0x07, 0x89, 0x2c,
  0x00, 0x59, 0x99, 0x2e, 0x6e, 0x07, 0x89, 0x2e, 0x00, 0x59, 0x99, 0x2c,
  0x6e, 0x07, 0x89, 0x2c, 0x00, 0x29, 0x99, 0x2a, 0x6e, 0x07, 0x89, 0x2a,
  0x00, 0x29, 0x99, 0x2a, 0x6e, 0x07, 0x89, 0x2a, 0x00, 0x81, 0x39, 0x99,
  0x2a, 0x6e, 0x07, 0x89, 0x2a, 0x00, 0x81, 0x39, 0x99, 0x2e, 0x6e, 0x07,
  0x89, 0x2e, 0x00, 0x59, 0x99, 0x2c, 0x6e, 0x07, 0x89, 0x2c, 0x00, 0x59,
  0x99, 0x2e, 0x6e, 0x07, 0x89, 0x2e, 0x00, 0x59, 0x99, 0x2c, 0x6e, 0x07,
  0x89, 0x2c, 0x00, 0x29, 0x99, 0x2a, 0x6e, 0x07, 0x89, 0x2a, 0x00, 0x29,
  0x99, 0x2a, 0x6e, 0x07, 0x89, 0x2a, 0x00, 0x81, 0x39, 0x99, 0x2a, 0x6e,
  0x07, 0x89, 0x2a, 0x00, 0x81, 0x39, 0x99, 0x2e, 0x6e, 0x07, 0x89, 0x2e,
  0x00, 0x59, 0x99, 0x2c, 0x6e, 0x07, 0x89, 0x2c, 0x00, 0x59, 0x99, 0x2e,
  0x6e, 0x07, 0x89, 0x2e, 0x00, 0x59, 0x99, 0x2c, 0x6e, 0x07, 0x89, 0x2c,
  0x00, 0x29, 0x99, 0x2a, 0x6e, 0x07, 0x89, 0x2a, 0x00, 0x29, 0x99, 0x2a,
  0x6e, 0x07, 0x89, 0x2a, 0x00, 0x81, 0x39, 0x99, 0x2a, 0x6e, 0x07, 0x89,
  0x2a, 0x00, 0x81, 0x39, 0x99, 0x2e, 0x6e, 0x07, 0x89, 0x2e, 0x00, 0x59,
  0x99, 0x2c, 0x6e, 0x07, 0x89, 0x2c, 0x00, 0x59, 0x99, 0x2e, 0x6e, 0x07,
  0x89, 0x2e, 0x00, 0x59, 0x99, 0x2c, 0x6e, 0x07, 0x89, 0x2c, 0x00, 0x29,
  0x99, 0x2a, 0x6e, 0x07, 0x89, 0x2a, 0x00, 0x29, 0x99, 0x2a, 0x6e, 0x07,
  0x89, 0x2a, 0x00, 0x81, 0x39, 0x99, 0x2a, 0x6e, 0x07, 0x89, 0x2a, 0x00,
  0x81, 0x39, 0x99, 0x2e, 0x6e, 0x07, 0x89, 0x2e, 0x00, 0x59, 0x99, 0x2c,
  0x6e, 0x07, 0x89, 0x2c, 0x00, 0x59, 0x99, 0x2e, 0x6e, 0x07, 0x89, 0x2e,
  0x00, 0x59, 0x99, 0x2c, 0x6e, 0x07, 0x89, 0x2c, 0x00, 0x29, 0x99, 0x2a,
  0x6e, 0x07, 0x89, 0x2a, 0x00, 0x29, 0x99, 0x2a, 0x6e, 0x07, 0x89, 0x2a,
  0x00, 0x81, 0x39, 0x99, 0x2a, 0x6e, 0x07, 0x89, 0x2a, 0x00, 0x81, 0x39,
  0x99, 0x2e, 0x6e, 0x07, 0x89, 0x2e, 0x00, 0x59, 0x99, 0x2c, 0x6e, 0x07,
  0x89, 0x2c, 0x00, 0x59, 0x99, 0x2e, 0x6e, 0x07, 0x89, 0x2e, 0x00, 0x59,
  0x99, 0x2c, 0x6e, 0x07, 0x89, 0x2c, 0x00, 0x29, 0x99, 0x2a, 0x6e, 0x07,
  0x89, 0x2a, 0x00, 0x29, 0x99, 0x2a, 0x6e, 0x00, 0xff, 0x2f, 0x00, 0x92,
  0x60, 0xff, 0x2f, 0x00, 0x4d, 0x54, 0x72, 0x6b, 0x00, 0x00, 0x01, 0xd1,
  0x00, 0xb9, 0x00, 0x00, 0x00, 0xb9, 0x20, 0x00, 0x00, 0xc9, 0x10, 0x00,
  0xff, 0x03, 0x07, 0x53, 0x74, 0x61, 0x66, 0x66, 0x2d, 0x31, 0x00, 0xb9,
  0x07, 0x7f, 0x00, 0xb9, 0x07, 0x7f, 0x00, 0xb9, 0x0a, 0x40, 0x00, 0x99,
  0x23, 0x46, 0x00, 0x24, 0x6c, 0x00, 0x28, 0x46, 0x00, 0x26, 0x6c, 0x07,
  0x89, 0x28, 0x00, 0x00, 0x26, 0x00, 0x81, 0x39, 0x99, 0x23, 0x46, 0x00,
  0x24, 0x6c, 0x07, 0x89, 0x23, 0x00, 0x00, 0x24, 0x00, 0x81, 0x39, 0x99,
  0x28, 0x46, 0x00, 0x26, 0x6c, 0x07, 0x89, 0x28, 0x00, 0x00, 0x26, 0x00,
  0x59, 0x99, 0x23, 0x46, 0x00, 0x24, 0x6c, 0x07, 0x89, 0x23, 0x00, 0x00,
  0x24, 0x00, 0x59, 0x99, 0x23, 0x46, 0x00, 0x24, 0x6c, 0x07, 0x89, 0x23,
  0x00, 0x00, 0x24, 0x00, 0x81, 0x39, 0x99, 0x28, 0x46, 0x00, 0x26, 0x6c,
  0x07, 0x89, 0x28, 0x00, 0x00, 0x26, 0x00, 0x81, 0x39, 0x99, 0x23, 0x46,
  0x00, 0x24, 0x6c, 0x07, 0x89, 0x23, 0x00, 0x00, 0x24, 0x00, 0x81, 0x39,
  0x99, 0x28, 0x46, 0x00, 0x26, 0x6c, 0x07, 0x89, 0x28, 0x00, 0x00, 0x26,
  0x00, 0x59, 0x99, 0x23, 0x46, 0x00, 0x24, 0x6c, 0x07, 0x89, 0x23, 0x00,
  0x00, 0x24, 0x00, 0x59, 0x99, 0x23, 0x46, 0x00, 0x24, 0x6c, 0x07, 0x89,
  0x23, 0x00, 0x00, 0x24, 0x00, 0x81, 0x39, 0x99, 0x28, 0x46, 0x00, 0x26,
  0x6c, 0x07, 0x89, 0x28, 0x00, 0x00, 0x26, 0x00, 0x81, 0x39, 0x99, 0x23,
  0x46, 0x00, 0x24, 0x6c, 0x07, 0x89, 0x23, 0x00, 0x00, 0x24, 0x00, 0x81,
  0x39, 0x99, 0x28, 0x46, 0x00, 0x26, 0x6c, 0x07, 0x89, 0x28, 0x00, 0x00,
  0x26, 0x00, 0x59, 0x99, 0x23, 0x46, 0x00, 0x24, 0x6c, 0x07, 0x89, 0x23,
  0x00, 0x00, 0x24, 0x00, 0x59, 0x99, 0x23, 0x46, 0x00, 0x24, 0x6c, 0x07,
  0x89, 0x23, 0x00, 0x00, 0x24, 0x00, 0x81, 0x39, 0x99, 0x28, 0x46, 0x00,
  0x26, 0x6c, 0x07, 0x89, 0x28, 0x00, 0x00, 0x26, 0x00, 0x81, 0x39, 0x99,
  0x23, 0x46, 0x00, 0x24, 0x6c, 0x07, 0x89, 0x23, 0x00, 0x00, 0x24, 0x00,
  0x81, 0x39, 0x99, 0x28, 0x46, 0x00, 0x26, 0x6c, 0x07, 0x89, 0x28, 0x00,
  0x00, 0x26, 0x00, 0x59, 0x99, 0x23, 0x46, 0x00, 0x24, 0x6c, 0x07, 0x89,
  0x23, 0x00, 0x00, 0x24, 0x00, 0x59, 0x99, 0x23, 0x46, 0x00, 0x24, 0x6c,
  0x07, 0x89, 0x23, 0x00, 0x00, 0x24, 0x00, 0x81, 0x39, 0x99, 0x28, 0x46,
  0x00, 0x26, 0x6c, 0x07, 0x89, 0x28, 0x00, 0x00, 0x26, 0x00, 0x81, 0x39,
  0x99, 0x23, 0x46, 0x00, 0x24, 0x6c, 0x07, 0x89, 0x23, 0x00, 0x00, 0x24,
  0x00, 0x81, 0x39, 0x99, 0x28, 0x46, 0x00, 0x26, 0x6c, 0x07, 0x89, 0x28,
  0x00, 0x00, 0x26, 0x00, 0x59, 0x99, 0x23, 0x46, 0x00, 0x24, 0x6c, 0x07,
  0x89, 0x23, 0x00, 0x00, 0x24, 0x00, 0x59, 0x99, 0x23, 0x46, 0x00, 0x24,
  0x6c, 0x07, 0x89, 0x23, 0x00, 0x00, 0x24, 0x00, 0x81, 0x39, 0x99, 0x28,
  0x46, 0x00, 0x26, 0x6c, 0x07, 0x89, 0x28, 0x00, 0x00, 0x26, 0x00, 0x81,
  0x39, 0x99, 0x23, 0x46, 0x00, 0x24, 0x6c, 0x07, 0x89, 0x23, 0x00, 0x00,
  0x24, 0x00, 0x81, 0x39, 0x99, 0x28, 0x46, 0x00, 0x26, 0x6c, 0x07, 0x89,
  0x28, 0x00, 0x00, 0x26, 0x00, 0x59, 0x99, 0x23, 0x46, 0x00, 0x24, 0x6c,
  0x00, 0xff, 0x2f, 0x00, 0x92, 0x60, 0xff, 0x2f, 0x00
};
unsigned int Retry_Bone_mid_len = 2361;
